<svg xmlns="http://www.w3.org/2000/svg" width="256" height="256" id="instagram"><path fill="none" stroke="#000" stroke-linecap="round" stroke-linejoin="round" stroke-miterlimit="10" stroke-width="4" d="M188.607 124.506c.337 14.371 1.113 35.523-.607 41.494-1.721 5.971-7.793 11.639-12.954 13.966-5.161 2.328-73.88 1.012-77.524 0s-9.109-8.805-10.323-11.639c-1.214-2.834-.607-72.059.81-77.827 1.417-5.769 6.376-9.109 10.93-11.133 4.554-2.024 53.572-1.214 62.545-.81 8.974.405 16.935 4.858 17.61 11.537.675 6.68-3.982 9.378-9.514 8.906-5.532-.472-9.226-5.708-6.064-9.702 3.163-3.994 20.837-4.973 23.267.189 2.431 5.162 2.529 17.624-.81 20.653-3.338 3.029-25.199-1.098-28.551.192-3.352 1.29 13.271 14.273 2.416 34.204-7.113 11.467-22.672 16.821-35.043 10.317-13.571-7.136-15.656-24.498-10.981-35.637.581-1.385 6.121-14.255 19.128-16.016 7.639-1.034 22.265 2.277 17.205 6.831-5.06 4.554-46.15-1.113-56.068.911"></path><path fill="none" stroke="#000" stroke-linecap="round" stroke-linejoin="round" stroke-miterlimit="10" stroke-width="4" d="M108.728 29.947C50.574 48.142 19.264 110.888 38.414 164.7c18.697 52.539 78.59 79.182 130.905 62.423 53.036-16.99 85.907-74.73 70.015-128.38-25.335-83.707-110.245-75.405-113.511-73.379"></path></svg>