<svg xmlns="http://www.w3.org/2000/svg" width="256" height="256" id="youtube"><path fill="none" stroke="#000" stroke-linecap="round" stroke-linejoin="round" stroke-miterlimit="10" stroke-width="4" d="M237.584 119.688c-4.841-60.741-59.077-105.191-115.796-98.456-55.379 6.576-94.644 59.066-89.908 113.796 4.801 55.484 53.81 100.345 109.649 96.75 87.242-6.134 97.983-90.77 96.732-94.404"></path><path fill="none" stroke="#000" stroke-linecap="round" stroke-linejoin="round" stroke-miterlimit="10" stroke-width="4" d="M84.873 170.241c5.002 2.156 84.443 1.131 89.326.953 10.54-.893 20.436-12.031 20.962-20.962.526-8.931 1.548-40.375-.238-47.879-2.263-9.23-11.493-17.865-23.344-18.342-9.528-.595-79.262-.238-87.182 1.191S70.7 91.396 70.342 102.83c-.357 11.434-.929 50.615 1.191 54.786"></path><path fill="none" stroke="#000" stroke-linecap="round" stroke-linejoin="round" stroke-miterlimit="10" stroke-width="4" d="M119.174 144.515c.839 3.787 33.345-13.816 33.348-18.58.004-4.764-32.42-19.171-34.539-16.198-2.119 2.974-.905 25.779-.905 25.779"></path></svg>